<svg xmlns="http://www.w3.org/2000/svg" width="32" height="24" viewBox="5 0 32 16" fill="none">
  <g clip-path="url(#clip0_851_366)" filter="url(#filter0_d_851_366)">
    <path d="M4.85303 0.325684H27.253V15.3257H4.85303V0.325684Z" fill="white"/>
    <path d="M14.59 6.32025H4.92773V9.2796H14.59V15.1983H17.5479V9.2796H27.2101V6.32025H17.5479V0.401543H14.59V6.32025Z" fill="#03122E"/>
    <path d="M22.4526 3.02568L22.2393 1.82568H23.306L23.0926 3.02568L24.3726 2.82568V3.82568L23.0926 3.62568L23.306 4.82568H22.2393L22.4526 3.62568L21.1726 3.82568V2.82568L22.4526 3.02568ZM8.90598 3.02568L8.69264 1.82568H9.75931L9.54598 3.02568L10.826 2.82568V3.82568L9.54598 3.62568L9.75931 4.82568H8.69264L8.90598 3.62568L7.62598 3.82568V2.82568L8.90598 3.02568ZM8.90598 12.0257L8.69264 10.8257H9.75931L9.54598 12.0257L10.826 11.8257V12.8257L9.54598 12.6257L9.75931 13.8257H8.69264L8.90598 12.6257L7.62598 12.8257V11.8257L8.90598 12.0257ZM22.4526 12.0257L22.2393 10.8257H23.306L23.0926 12.0257L24.3726 11.8257V12.8257L23.0926 12.6257L23.306 13.8257H22.2393L22.4526 12.6257L21.1726 12.8257V11.8257L22.4526 12.0257Z" fill="#03122E"/>
  </g>
  <defs>
    <filter id="filter0_d_851_366" x="-0.000488281" y="0.325684" width="32" height="23" filterUnits="userSpaceOnUse" color-interpolation-filters="sRGB">
      <feFlood flood-opacity="0" result="BackgroundImageFix"/>
      <feColorMatrix in="SourceAlpha" type="matrix" values="0 0 0 0 0 0 0 0 0 0 0 0 0 0 0 0 0 0 127 0" result="hardAlpha"/>
      <feOffset dy="4"/>
      <feGaussianBlur stdDeviation="2"/>
      <feComposite in2="hardAlpha" operator="out"/>
      <feColorMatrix type="matrix" values="0 0 0 0 0 0 0 0 0 0 0 0 0 0 0 0 0 0 0.25 0"/>
      <feBlend mode="normal" in2="BackgroundImageFix" result="effect1_dropShadow_851_366"/>
      <feBlend mode="normal" in="SourceGraphic" in2="effect1_dropShadow_851_366" result="shape"/>
    </filter>
    <clipPath id="clip0_851_366">
      <rect width="24" height="15" fill="white" transform="translate(3.99951 0.325684)"/>
    </clipPath>
  </defs>
</svg>