<svg xmlns="http://www.w3.org/2000/svg" width="24" height="25" viewBox="0 0 24 25" fill="none">
<path d="M17.9 18.2157C17.64 17.4157 16.89 16.8257 16 16.8257H15V13.8257C15 13.5605 14.8946 13.3061 14.7071 13.1186C14.5196 12.931 14.2652 12.8257 14 12.8257H8V10.8257H10C10.2652 10.8257 10.5196 10.7203 10.7071 10.5328C10.8946 10.3453 11 10.0909 11 9.82568V7.82568H13C13.5304 7.82568 14.0391 7.61497 14.4142 7.2399C14.7893 6.86482 15 6.35612 15 5.82568V5.41568C17.93 6.59568 20 9.46568 20 12.8257C20 14.9057 19.2 16.7957 17.9 18.2157ZM11 20.7557C7.05 20.2657 4 16.9057 4 12.8257C4 12.2057 4.08 11.6057 4.21 11.0357L9 15.8257V16.8257C9 17.3561 9.21071 17.8648 9.58579 18.2399C9.96086 18.615 10.4696 18.8257 11 18.8257M12 2.82568C10.6868 2.82568 9.38642 3.08434 8.17317 3.58689C6.95991 4.08944 5.85752 4.82603 4.92893 5.75462C3.05357 7.62998 2 10.1735 2 12.8257C2 15.4778 3.05357 18.0214 4.92893 19.8968C5.85752 20.8253 6.95991 21.5619 8.17317 22.0645C9.38642 22.567 10.6868 22.8257 12 22.8257C14.6522 22.8257 17.1957 21.7721 19.0711 19.8968C20.9464 18.0214 22 15.4778 22 12.8257C22 11.5125 21.7413 10.2121 21.2388 8.99885C20.7362 7.78559 19.9997 6.6832 19.0711 5.75462C18.1425 4.82603 17.0401 4.08944 15.8268 3.58689C14.6136 3.08434 13.3132 2.82568 12 2.82568Z" fill="white"/>
</svg>