<svg xmlns="http://www.w3.org/2000/svg" width="51" height="51" viewBox="0 0 51 51" fill="none">
<rect x="0.381348" y="0.5" width="50" height="50" rx="10" fill="white" fill-opacity="0.1"/>
<path d="M35.3513 31.83C35.3513 32.19 35.2713 32.56 35.1013 32.92C34.9313 33.28 34.7113 33.62 34.4213 33.94C33.9313 34.48 33.3913 34.87 32.7813 35.12C32.1813 35.37 31.5313 35.5 30.8313 35.5C29.8113 35.5 28.7213 35.26 27.5713 34.77C26.4213 34.28 25.2713 33.62 24.1313 32.79C22.9813 31.95 21.8913 31.02 20.8513 29.99C19.8213 28.95 18.8913 27.86 18.0613 26.72C17.2413 25.58 16.5813 24.44 16.1013 23.31C15.6213 22.17 15.3813 21.08 15.3813 20.04C15.3813 19.36 15.5013 18.71 15.7413 18.11C15.9813 17.5 16.3613 16.94 16.8913 16.44C17.5313 15.81 18.2313 15.5 18.9713 15.5C19.2513 15.5 19.5313 15.56 19.7813 15.68C20.0413 15.8 20.2713 15.98 20.4513 16.24L22.7713 19.51C22.9513 19.76 23.0813 19.99 23.1713 20.21C23.2613 20.42 23.3113 20.63 23.3113 20.82C23.3113 21.06 23.2413 21.3 23.1013 21.53C22.9713 21.76 22.7813 22 22.5413 22.24L21.7813 23.03C21.6713 23.14 21.6213 23.27 21.6213 23.43C21.6213 23.51 21.6313 23.58 21.6513 23.66C21.6813 23.74 21.7113 23.8 21.7313 23.86C21.9113 24.19 22.2213 24.62 22.6613 25.14C23.1113 25.66 23.5913 26.19 24.1113 26.72C24.6513 27.25 25.1713 27.74 25.7013 28.19C26.2213 28.63 26.6513 28.93 26.9913 29.11C27.0413 29.13 27.1013 29.16 27.1713 29.19C27.2513 29.22 27.3313 29.23 27.4213 29.23C27.5913 29.23 27.7213 29.17 27.8313 29.06L28.5913 28.31C28.8413 28.06 29.0813 27.87 29.3113 27.75C29.5413 27.61 29.7713 27.54 30.0213 27.54C30.2113 27.54 30.4113 27.58 30.6313 27.67C30.8513 27.76 31.0813 27.89 31.3313 28.06L34.6413 30.41C34.9013 30.59 35.0813 30.8 35.1913 31.05C35.2913 31.3 35.3513 31.55 35.3513 31.83Z" stroke="#00F0FF" stroke-width="1.5" stroke-miterlimit="10"/>
<path d="M31.8813 22.5C31.8813 21.9 31.4113 20.98 30.7113 20.23C30.0713 19.54 29.2213 19 28.3813 19" stroke="#00F0FF" stroke-width="1.5" stroke-linecap="round" stroke-linejoin="round"/>
<path d="M35.3813 22.5C35.3813 18.63 32.2513 15.5 28.3813 15.5" stroke="#00F0FF" stroke-width="1.5" stroke-linecap="round" stroke-linejoin="round"/>
</svg>